<?xml version="1.0" encoding="UTF-8"?> <svg xmlns="http://www.w3.org/2000/svg" width="658" height="658" viewBox="0 0 658 658" fill="none"> <path d="M335.254 17.9875L335.34 15.4179L332.77 15.3322L333.37 2.48399L335.94 2.56964L336.026 0L348.877 0.599583L348.791 3.16923L351.362 3.25488L350.762 16.1031L348.192 16.0174L348.106 18.5871L335.254 17.9875ZM337.996 15.5035L345.707 15.8461L346.307 2.99792L338.596 2.6553L337.996 15.5035Z" fill="#646485"></path> <path d="M361.3 19.615L363.014 4.28275L357.873 3.68317L358.13 1.11353L373.466 2.82662L373.209 5.39626L368.069 4.79668L366.355 20.1289L361.3 19.615Z" fill="#646485"></path> <path d="M384.433 9.85038L387.003 10.2787L386.575 12.8483L389.145 13.2766L388.717 15.8462L391.287 16.2745L390.345 21.3281L392.915 21.7564L392.487 24.326L387.432 23.3838L387.86 20.8142L385.29 20.3859L386.232 15.3323L381.177 14.3901L379.807 22.0134L374.752 21.0712L377.75 3.42627L382.805 4.36847L381.434 11.9917L384.005 12.42L384.433 9.85038ZM395.4 6.5955L394.971 9.16514L392.401 8.73687L391.973 11.3065L386.918 10.3643L387.346 7.79466L389.916 8.22294L390.345 5.65329L395.4 6.5955Z" fill="#646485"></path> <path d="M395.143 24.8398L399.512 7.36621L414.506 11.135L413.906 13.619L416.391 14.2186L414.506 21.6706L412.021 21.071L411.421 23.555L401.483 21.071L400.198 26.039L395.143 24.8398ZM401.997 18.6726L409.451 20.557L411.336 13.1051L403.882 11.2207L401.997 18.6726Z" fill="#646485"></path> <path d="M415.534 29.9791L421.103 12.8481L425.987 14.4756L424.359 19.3579L429.242 20.9853L425.301 33.234L415.534 29.9791ZM421.189 29.1226L423.673 29.8934L426.072 22.5271L423.588 21.7562L421.189 29.1226ZM427.7 33.9192L433.269 16.7883L438.153 18.4157L432.584 35.5467L427.7 33.9192Z" fill="#646485"></path> <path d="M442.608 39.4013L448.348 25.0969L443.55 23.2125L444.493 20.8142L458.801 26.5531L457.858 28.9514L453.06 27.067L447.32 41.3714L442.608 39.4013Z" fill="#646485"></path> <path d="M454.945 44.2835L462.742 28.0947L467.368 30.3218L465.141 34.9471L469.767 37.1741L464.198 48.8232L454.945 44.2835ZM460.686 44.1978L462.999 45.3113L466.34 38.3733L464.027 37.2598L460.686 44.1978ZM466.512 49.9367L474.308 33.7479L478.935 35.975L471.138 52.1637L466.512 49.9367Z" fill="#646485"></path> <path d="M473.794 53.4484L480.134 42.3132L484.589 44.8829L480.734 51.5639L482.962 52.8488L484.247 50.6217L486.474 51.9066L487.76 49.6795L489.987 50.9644L491.272 48.7373L495.728 51.307L489.387 62.4421L484.932 59.8725L487.503 55.4184L485.275 54.1336L483.99 56.3606L481.762 55.0758L480.477 57.3028L473.794 53.4484ZM483.647 41.2854L484.932 39.0583L496.07 45.3968L494.785 47.6238L483.647 41.2854Z" fill="#646485"></path> <path d="M511.578 77.0036L513.12 74.9478L511.064 73.4061L512.606 71.3503L516.718 74.4339L515.176 76.4896L521.345 81.2006L524.429 77.0892L516.29 70.8364L517.832 68.7807L515.776 67.2389L520.488 61.0718L524.601 64.1553L519.888 70.3225L526.057 75.0335L530.769 68.8664L534.882 71.9499L525.543 84.1986L523.487 82.6568L521.773 84.7981L511.578 77.0036Z" fill="#646485"></path> <path d="M526.143 88.2244L538.052 74.6909L549.618 84.7982L547.905 86.7682L549.876 88.4813L544.821 94.3059L542.85 92.5928L541.136 94.5628L533.425 87.7961L529.998 91.6506L526.143 88.2244ZM535.139 85.7404L540.965 90.794L546.02 84.9695L540.194 79.9159L535.139 85.7404Z" fill="#646485"></path> <path d="M543.792 103.814L545.592 102.015L543.792 100.216L552.874 91.1367L554.673 92.9355L556.473 91.1367L565.554 100.216L563.755 102.015L565.554 103.814L556.473 112.893L554.673 111.094L552.874 112.893L543.792 103.814ZM547.391 103.814L552.874 109.296L561.956 100.216L556.473 94.7342L547.391 103.814Z" fill="#646485"></path> <path d="M571.552 114.264L573.265 116.234L571.295 117.947L573.008 119.917L571.038 121.63L572.751 123.6L568.896 126.94L570.609 128.91L568.639 130.624L565.297 126.769L567.268 125.056L565.554 123.086L569.41 119.745L566.069 115.891L560.243 120.945L556.901 117.09L570.438 105.27L573.78 109.124L567.953 114.178L569.667 116.148L571.552 114.264ZM582.176 118.632L580.205 120.345L578.492 118.375L576.521 120.088L573.18 116.234L575.15 114.52L576.864 116.491L578.834 114.777L582.176 118.632Z" fill="#646485"></path> <path d="M596.055 169.168L598.283 167.883L596.998 165.656L608.136 159.318L609.421 161.545L611.649 160.26L617.989 171.395L615.761 172.68L617.046 174.907L605.908 181.246L604.623 179.018L602.395 180.303L596.055 169.168ZM599.568 170.11L603.338 176.791L614.476 170.453L610.706 163.772L599.568 170.11Z" fill="#646485"></path> <path d="M608.479 192.124L622.358 185.443L620.131 180.817L622.444 179.704L629.127 193.58L626.813 194.693L624.586 190.068L610.706 196.749L608.479 192.124Z" fill="#646485"></path> <path d="M628.955 206.428L629.898 208.826L627.499 209.769L628.441 212.167L626.042 213.109L626.985 215.507L622.187 217.392L623.129 219.79L620.73 220.732L618.846 215.936L621.244 214.993L620.302 212.595L625.1 210.711L623.215 205.914L616.018 208.741L614.133 203.944L630.84 197.263L632.725 202.06L625.528 204.886L626.471 207.285L628.955 206.428ZM637.609 214.051L635.21 214.993L634.267 212.595L631.868 213.537L629.984 208.741L632.382 207.798L633.325 210.197L635.724 209.255L637.609 214.051Z" fill="#646485"></path> <path d="M621.93 223.559L639.065 217.991L643.778 232.638L641.293 233.409L642.064 235.893L634.696 238.292L633.925 235.808L631.44 236.579L628.27 226.814L623.386 228.356L621.93 223.559ZM630.84 226.043L633.239 233.409L640.608 231.011L638.209 223.645L630.84 226.043Z" fill="#646485"></path> <path d="M628.356 243.517L645.834 239.148L647.119 244.116L642.15 245.401L643.435 250.369L630.926 253.453L628.356 243.517ZM631.526 255.937L649.004 251.568L650.289 256.536L632.811 260.905L631.526 255.937ZM632.125 247.885L632.725 250.369L640.179 248.485L639.579 246.001L632.125 247.885Z" fill="#646485"></path> <path d="M634.781 271.44L649.946 268.699L649.004 263.645L651.574 263.217L654.316 278.378L651.746 278.806L650.803 273.753L635.638 276.494L634.781 271.44Z" fill="#646485"></path> <path d="M637.095 284.545L655.001 282.575L655.601 287.714L650.46 288.314L651.06 293.453L638.294 294.824L637.095 284.545ZM638.551 297.308L656.458 295.338L657.058 300.477L639.151 302.447L638.551 297.308ZM640.265 289.342L640.522 291.912L648.147 291.055L647.89 288.485L640.265 289.342Z" fill="#646485"></path> <path d="M639.408 305.359L652.26 304.845L652.517 309.985L644.806 310.327L644.891 312.897L647.462 312.811L647.547 315.381L650.118 315.295L650.203 317.865L652.774 317.779L653.031 322.918L640.179 323.432L639.922 318.293L645.063 318.036L644.977 315.466L642.407 315.552L642.321 312.982L639.751 313.068L639.408 305.359ZM654.916 307.329L657.486 307.244L658 320.092L655.43 320.177L654.916 307.329Z" fill="#646485"></path> <path d="M639.494 349.814L642.064 350.071L642.321 347.501L644.891 347.758L644.463 352.898L641.893 352.641L641.207 360.35L646.348 360.778L647.29 350.499L649.861 350.756L650.118 348.187L657.829 348.872L657.4 354.011L649.689 353.326L649.004 361.035L656.715 361.72L656.286 366.859L640.95 365.489L641.207 362.919L638.637 362.662L639.494 349.814Z" fill="#646485"></path> <path d="M637.78 368.144L655.515 370.971L653.116 386.217L650.546 385.789L650.118 388.359L642.578 387.159L643.006 384.59L640.436 384.161L642.064 374.054L637.009 373.283L637.78 368.144ZM644.634 374.483L643.435 382.106L651.06 383.305L652.26 375.682L644.634 374.483Z" fill="#646485"></path> <path d="M633.925 391.442L636.409 392.042L637.009 389.558L649.518 392.47L648.918 394.954L651.403 395.554L648.49 408.059L646.005 407.46L645.405 409.944L632.897 407.031L633.496 404.547L631.012 403.948L633.925 391.442ZM635.81 394.44L634.096 401.978L646.605 404.89L648.319 397.352L635.81 394.44Z" fill="#646485"></path> <path d="M639.836 420.393L639.065 422.878L636.581 422.107L635.81 424.591L633.325 423.82L632.554 426.304L627.67 424.848L626.899 427.332L624.586 426.561L626.042 421.678L628.527 422.449L629.298 419.965L634.182 421.421L635.638 416.539L628.27 414.312L629.727 409.43L646.948 414.655L645.491 419.537L638.123 417.31L637.352 419.794L639.836 420.393ZM641.807 431.786L639.322 431.015L640.093 428.531L637.609 427.76L639.065 422.878L641.55 423.648L640.779 426.132L643.264 426.903L641.807 431.786Z" fill="#646485"></path> <path d="M606.251 470.33L608.479 471.529L609.678 469.302L620.987 475.47L619.788 477.697L622.016 478.896L615.847 490.202L613.619 489.003L612.42 491.23L601.11 485.063L602.31 482.836L600.082 481.637L606.251 470.33ZM607.279 473.756L603.595 480.523L614.904 486.69L618.588 479.924L607.279 473.756Z" fill="#646485"></path> <path d="M593.314 493.029L606.337 501.252L609.078 496.883L611.22 498.254L602.995 511.273L600.853 509.903L603.595 505.534L590.572 497.312L593.314 493.029Z" fill="#646485"></path> <path d="M592.029 518.04L590.486 520.096L588.43 518.554L586.888 520.61L584.832 519.068L583.29 521.124L579.177 518.126L577.635 520.181L575.579 518.64L578.577 514.528L580.634 516.07L582.176 514.014L586.288 517.012L589.287 512.901L583.033 508.361L586.031 504.25L600.511 514.871L597.512 518.982L591.258 514.442L589.715 516.498L592.029 518.04ZM590.058 529.346L588.002 527.805L589.544 525.749L587.488 524.207L590.486 520.096L592.543 521.637L591.001 523.693L593.057 525.235L590.058 529.346Z" fill="#646485"></path> <path d="M573.779 521.124L587.573 532.687L577.635 544.507L575.664 542.88L574.036 544.764L568.125 539.796L569.753 537.826L567.782 536.199L574.379 528.319L570.438 524.978L573.779 521.124ZM576.435 530.032L571.466 535.942L577.378 540.91L582.347 535L576.435 530.032Z" fill="#646485"></path> <path d="M551.418 546.392L564.355 558.897L560.757 562.581L547.819 550.075L551.418 546.392ZM560.328 537.141L573.265 549.647L569.667 553.33L565.983 549.732L562.384 553.416L553.131 544.507L560.328 537.141ZM558.615 542.623L556.815 544.507L562.384 549.818L564.184 547.934L558.615 542.623Z" fill="#646485"></path> <path d="M540.023 557.441L550.39 568.833L554.159 565.407L555.873 567.292L544.478 577.656L542.764 575.772L546.534 572.345L536.167 560.953L540.023 557.441Z" fill="#646485"></path> <path d="M520.146 574.315L531.284 588.448L527.257 591.618L516.119 577.484L520.146 574.315ZM530.17 566.349L541.308 580.482L537.281 583.652L534.111 579.626L530.084 582.795L522.116 572.688L530.17 566.349ZM527.771 571.574L525.715 573.202L530.513 579.283L532.569 577.656L527.771 571.574Z" fill="#646485"></path> <path d="M513.72 579.369L521.002 589.99L516.804 592.903L512.435 586.564L510.293 588.02L511.749 590.162L509.607 591.618L511.064 593.759L508.922 595.215L510.378 597.357L506.18 600.269L498.898 589.648L503.096 586.735L506.009 590.933L508.151 589.476L506.694 587.335L508.836 585.879L507.38 583.738L513.72 579.369ZM520.403 593.502L521.859 595.644L511.235 602.924L509.779 600.783L520.403 593.502Z" fill="#646485"></path> <path d="M476.108 603.095L477.307 605.408L479.62 604.209L480.82 606.521L476.193 608.834L474.994 606.521L468.14 610.033L470.453 614.659L479.62 610.033L480.82 612.346L483.133 611.147L486.646 617.999L482.019 620.312L478.506 613.459L471.652 616.971L475.165 623.824L470.539 626.136L463.599 612.346L465.912 611.147L464.712 608.834L476.108 603.095Z" fill="#646485"></path> <path d="M459.658 611.404L466.683 627.935L452.461 633.931L451.433 631.533L449.034 632.56L446.035 625.451L448.434 624.423L447.406 622.025L456.916 617.999L454.945 613.288L459.658 611.404ZM457.944 620.483L450.833 623.481L453.832 630.59L460.943 627.593L457.944 620.483Z" fill="#646485"></path> <path d="M437.896 620.397L438.752 622.796L441.151 621.939L445.349 634.102L442.951 634.959L443.807 637.357L431.641 641.554L430.784 639.156L428.385 640.012L424.187 627.849L426.586 626.993L425.729 624.595L437.896 620.397ZM436.353 623.652L429.071 626.136L433.269 638.299L440.552 635.815L436.353 623.652Z" fill="#646485"></path> <path d="M416.391 640.783L413.906 641.469L413.221 638.985L410.736 639.67L410.051 637.186L407.566 637.871L406.195 632.903L403.71 633.589L403.025 631.105L407.994 629.734L408.68 632.218L411.164 631.533L412.535 636.501L417.504 635.13L415.448 627.678L420.418 626.308L425.13 643.696L420.16 645.066L418.104 637.614L415.62 638.3L416.391 640.783ZM407.823 648.492L407.138 646.008L409.622 645.323L408.937 642.839L413.906 641.469L414.591 643.953L412.107 644.638L412.792 647.122L407.823 648.492Z" fill="#646485"></path> <path d="M356.331 638.813L356.502 641.383L359.073 641.212L359.844 654.06L357.273 654.231L357.445 656.801L344.593 657.572L344.422 655.002L341.852 655.174L341.08 642.325L343.651 642.154L343.479 639.584L356.331 638.813ZM353.932 641.469L346.221 641.983L346.992 654.831L354.703 654.317L353.932 641.469Z" fill="#646485"></path> <path d="M330.285 639.927L330.028 655.345L335.169 655.43V658L319.747 657.743V655.174L324.888 655.259L325.145 639.841L330.285 639.927Z" fill="#646485"></path> <path d="M297.728 656.458L297.899 653.889L300.47 654.06L300.641 651.49L305.782 651.833L305.61 654.403L303.04 654.231L302.869 656.801L297.728 656.458ZM308.352 652.09L305.782 651.919L305.953 649.349L303.383 649.178L303.554 646.608L300.984 646.437L301.326 641.297L298.756 641.126L298.927 638.556L304.068 638.899L303.897 641.469L306.467 641.64L306.124 646.779L311.265 647.122L311.779 639.413L316.92 639.756L315.634 657.657L310.494 657.315L311.008 649.606L308.438 649.435L308.352 652.09Z" fill="#646485"></path> <path d="M296.014 638.299L293.53 656.115L278.279 653.974L278.622 651.404L276.052 651.062L277.08 643.439L279.65 643.781L279.993 641.211L290.188 642.668L290.874 637.614L296.014 638.299ZM289.846 645.237L282.22 644.209L281.192 651.833L288.817 652.861L289.846 645.237Z" fill="#646485"></path> <path d="M262.686 632.732L259.002 650.377L253.947 649.349L257.631 631.704L262.686 632.732ZM275.28 635.387L271.596 653.032L266.541 652.004L267.57 646.951L262.515 645.923L265.171 633.332L275.28 635.387ZM269.711 636.843L267.227 636.329L265.685 643.867L268.169 644.381L269.711 636.843Z" fill="#646485"></path> <path d="M247.264 628.963L243.066 643.781L248.035 645.152L247.35 647.636L232.528 643.439L233.213 640.955L238.182 642.325L242.38 627.507L247.264 628.963Z" fill="#646485"></path> <path d="M222.418 621.083L216.42 638.042L211.537 636.329L217.534 619.37L222.418 621.083ZM234.498 625.365L228.501 642.325L223.617 640.612L225.331 635.73L220.447 634.017L224.731 621.939L234.498 625.365ZM228.843 626.136L226.445 625.28L223.874 632.56L226.273 633.417L228.843 626.136Z" fill="#646485"></path> <path d="M214.792 618.342L209.652 630.162L204.94 628.106L208.024 620.997L205.625 619.969L204.597 622.368L202.198 621.34L201.17 623.738L198.771 622.71L197.743 625.108L193.03 623.053L198.171 611.232L202.883 613.288L200.827 617.999L203.226 619.027L204.254 616.629L206.653 617.657L207.681 615.258L214.792 618.342ZM206.31 631.447L205.282 633.845L193.459 628.706L194.487 626.308L206.31 631.447Z" fill="#646485"></path> <path d="M174.696 598.984L173.325 601.211L175.552 602.581L174.181 604.808L169.812 602.153L171.183 599.926L164.586 595.9L161.93 600.269L170.754 605.579L169.384 607.806L171.611 609.177L167.584 615.772L163.215 613.117L167.242 606.521L160.645 602.496L156.618 609.091L152.248 606.436L160.216 593.245L162.444 594.615L163.815 592.388L174.696 598.984Z" fill="#646485"></path> <path d="M158.931 589.476L148.564 604.209L135.97 595.301L137.426 593.16L135.284 591.703L139.739 585.365L141.881 586.821L143.338 584.68L151.734 590.59L154.647 586.393L158.931 589.476ZM150.363 592.817L144.023 588.363L139.568 594.701L145.908 599.155L150.363 592.817Z" fill="#646485"></path> <path d="M139.825 575.772L138.197 577.742L140.168 579.369L132.114 589.391L130.143 587.763L128.516 589.733L118.491 581.682L120.119 579.712L118.149 578.084L126.202 568.063L128.173 569.69L129.801 567.72L139.825 575.772ZM136.141 576.114L130.143 571.232L122.09 581.253L128.087 586.136L136.141 576.114Z" fill="#646485"></path> <path d="M100.071 565.15L101.784 563.266L103.669 564.979L105.383 563.095L109.153 566.607L107.439 568.491L105.554 566.778L103.841 568.662L100.071 565.15ZM111.123 568.405L109.238 566.692L110.952 564.808L109.067 563.095L110.78 561.21L108.896 559.497L112.408 555.728L110.523 554.015L112.237 552.131L116.007 555.643L114.293 557.527L116.178 559.24L112.665 563.009L116.435 566.521L121.661 560.868L125.431 564.38L113.179 577.57L109.41 574.058L114.636 568.405L112.751 566.692L111.123 568.405Z" fill="#646485"></path> <path d="M68.713 499.282L66.5711 500.652L67.9419 502.794L57.0609 509.56L55.6901 507.419L53.5482 508.79L46.7797 497.911L48.9216 496.541L47.5508 494.4L58.4317 487.633L59.8026 489.774L61.9445 488.404L68.713 499.282ZM65.2002 498.425L61.1734 491.916L50.2924 498.682L54.3193 505.192L65.2002 498.425Z" fill="#646485"></path> <path d="M55.4331 476.84L41.8104 484.035L44.2094 488.575L41.9818 489.774L34.7849 476.155L37.0125 474.956L39.4115 479.496L53.0341 472.301L55.4331 476.84Z" fill="#646485"></path> <path d="M25.4461 456.026L27.7594 454.998L28.7875 457.311L31.1008 456.283L33.157 460.994L30.8438 462.022L29.8156 459.709L27.5024 460.737L25.4461 456.026ZM34.3565 463.307L33.3284 460.994L35.6417 459.966L34.6136 457.653L36.9268 456.625L35.8987 454.313L40.611 452.257L39.5828 449.944L41.8961 448.917L43.9524 453.628L41.6391 454.655L42.6672 456.968L37.955 459.024L40.0112 463.735L47.0367 460.566L49.093 465.277L32.643 472.643L30.5867 467.932L37.6123 464.763L36.5841 462.45L34.3565 463.307Z" fill="#646485"></path> <path d="M40.6966 445.919L23.8182 452.171L18.5062 437.696L20.9052 436.839L20.0484 434.441L27.2453 431.786L28.1021 434.184L30.501 433.327L34.0138 443.006L38.8117 441.208L40.6966 445.919ZM31.7005 443.777L29.0445 436.582L21.8476 439.238L24.5036 446.433L31.7005 443.777Z" fill="#646485"></path> <path d="M29.8156 413.969L12.5089 419.023L11.0524 414.055L28.3591 409.001L29.8156 413.969ZM33.4141 426.304L16.1073 431.357L14.6508 426.389L19.6201 424.933L18.1636 419.965L30.5011 416.368L33.4141 426.304ZM29.5586 422.107L28.8732 419.623L21.505 421.764L22.1904 424.248L29.5586 422.107Z" fill="#646485"></path> <path d="M25.8745 398.637L10.7953 401.978L11.9091 407.031L9.42447 407.545L6.08307 392.47L8.5677 391.956L9.68151 397.01L24.7607 393.669L25.8745 398.637Z" fill="#646485"></path> <path d="M21.1622 372.941L3.34141 375.596L2.57031 370.543L20.3911 367.887L21.1622 372.941ZM23.0471 385.618L5.2263 388.273L4.45521 383.219L9.51016 382.448L8.73906 377.395L21.4193 375.51L23.0471 385.618ZM19.7914 380.992L19.4487 378.423L11.8234 379.536L12.1661 382.106L19.7914 380.992Z" fill="#646485"></path> <path d="M4.36956 363.605L1.79924 363.776L0.771118 350.928L3.34143 350.756L4.36956 363.605ZM19.9628 364.889L7.11122 365.917L6.68284 360.778L14.3938 360.178L14.2224 357.609L11.6521 357.78L11.4808 355.21L8.91044 355.382L8.73909 352.812L6.16877 352.983L5.74039 347.844L18.592 346.816L19.0203 351.955L13.8797 352.384L14.0511 354.953L16.6214 354.782L16.7927 357.352L19.363 357.18L19.9628 364.889Z" fill="#646485"></path> <path d="M18.0779 320.435L15.5076 320.263L15.3362 322.833L12.7659 322.662L13.0229 317.522L15.5932 317.694L16.0216 309.985L10.881 309.728L10.3669 320.006L7.79661 319.835L7.62526 322.405L0 322.062L0.257031 316.923L7.96797 317.351L8.39635 309.642L0.685417 309.214L0.942448 304.074L16.3643 304.845L16.193 307.415L18.7633 307.586L18.0779 320.435Z" fill="#646485"></path> <path d="M19.0203 302.104L1.11383 299.963L2.91305 284.631L5.48336 284.973L5.82607 282.404L13.4513 283.346L13.1086 285.916L15.6789 286.258L14.5651 296.366L19.7058 296.965L19.0203 302.104ZM11.9948 296.023L12.9373 288.4L5.31201 287.457L4.36956 295.081L11.9948 296.023Z" fill="#646485"></path> <path d="M22.019 278.721L19.5344 278.207L19.0203 280.691L6.42577 278.378L6.93984 275.894L4.4552 275.38L6.85416 262.789L9.33879 263.303L9.85286 260.819L22.4474 263.217L21.9333 265.701L24.418 266.215L22.019 278.721ZM19.9628 275.723L21.4193 268.185L8.82473 265.787L7.36822 273.324L19.9628 275.723Z" fill="#646485"></path> <path d="M14.9078 249.941L15.5932 247.457L18.0779 248.142L18.7633 245.658L21.2479 246.343L21.9333 243.859L26.9026 245.144L27.588 242.66L30.0727 243.345L28.7875 248.313L26.3029 247.628L25.6175 250.112L20.6482 248.827L19.363 253.795L26.8169 255.765L25.5318 260.733L8.05365 256.108L9.33881 251.14L16.7927 253.11L17.4781 250.626L14.9078 249.941ZM12.5089 238.72L14.9935 239.405L14.3081 241.889L16.7927 242.574L15.5076 247.542L13.0229 246.857L13.7083 244.373L11.2237 243.688L12.5089 238.72Z" fill="#646485"></path> <path d="M55.8615 180.046L53.6339 178.762L52.3487 180.989L41.2107 174.565L42.4959 172.337L40.2682 171.053L46.694 159.918L48.9216 161.202L50.2068 158.975L61.3448 165.399L60.0597 167.626L62.2873 168.911L55.8615 180.046ZM54.919 176.535L58.7745 169.854L47.6365 163.429L43.781 170.11L54.919 176.535Z" fill="#646485"></path> <path d="M69.3984 157.69L56.6325 149.125L53.8052 153.408L51.6633 151.952L60.231 139.189L62.3729 140.645L59.5456 144.928L72.3114 153.493L69.3984 157.69Z" fill="#646485"></path> <path d="M71.4547 132.765L72.9969 130.709L75.0531 132.251L76.5953 130.195L78.6515 131.737L80.1937 129.681L84.2206 132.851L85.7627 130.795L87.819 132.337L84.6489 136.362L82.5927 134.821L81.0505 136.876L77.0237 133.707L73.8536 137.733L79.9367 142.444L76.7666 146.47L62.5443 135.42L65.7143 131.394L71.7974 136.105L73.3396 134.05L71.4547 132.765ZM73.6823 121.458L75.7385 123L74.1963 125.056L76.2526 126.598L73.0825 130.624L71.0263 129.082L72.5685 127.026L70.5122 125.484L73.6823 121.458Z" fill="#646485"></path> <path d="M89.7039 130.109L76.2526 118.203L86.5339 106.64L88.4188 108.353L90.1323 106.469L95.8727 111.608L94.1591 113.492L96.044 115.206L89.1899 122.914L93.0453 126.341L89.7039 130.109ZM87.3906 121.201L92.5313 115.463L86.7909 110.323L81.6503 116.062L87.3906 121.201Z" fill="#646485"></path> <path d="M103.669 114.435L91.0748 101.586L94.7589 97.9889L98.3573 101.672L102.041 98.0745L111.038 107.24L103.669 114.435ZM105.554 109.038L107.353 107.24L101.956 101.758L100.157 103.556L105.554 109.038ZM112.837 105.441L100.242 92.5926L103.926 88.9951L116.521 101.843L112.837 105.441Z" fill="#646485"></path> <path d="M124.489 94.7343L114.465 83.0852L110.609 86.4258L108.896 84.4557L120.548 74.4341L122.261 76.4041L118.406 79.7447L128.43 91.3937L124.489 94.7343Z" fill="#646485"></path> <path d="M134.599 86.0829L123.803 71.6929L127.916 68.6093L131 72.7208L135.113 69.6372L142.824 79.9158L134.599 86.0829ZM137.169 80.9436L139.225 79.4018L134.599 73.2347L132.542 74.7765L137.169 80.9436ZM144.88 78.374L134.085 63.984L138.197 60.9004L148.992 75.2904L144.88 78.374Z" fill="#646485"></path> <path d="M145.137 59.1875L143.766 57.0461L154.561 50.0225L155.932 52.2495L145.137 59.1875ZM151.391 73.5775L144.366 62.785L148.65 59.9584L152.848 66.3825L154.99 65.012L153.619 62.8707L155.761 61.5002L154.39 59.3588L156.532 57.9883L155.161 55.847L159.445 53.0204L166.471 63.8129L162.187 66.6395L159.359 62.3567L157.217 63.7272L158.588 65.8686L156.446 67.2391L157.817 69.3804L151.391 73.5775Z" fill="#646485"></path> <path d="M189.603 50.8789L188.49 48.5662L186.176 49.6797L185.063 47.367L189.689 45.14L190.803 47.4527L197.743 44.1978L195.515 39.5725L186.176 43.9409L185.063 41.6282L182.749 42.7417L179.494 35.8037L184.12 33.5766L187.376 40.5147L194.316 37.2598L191.06 30.3218L195.686 28.0947L202.284 42.0565L199.97 43.17L201.084 45.4826L189.603 50.8789Z" fill="#646485"></path> <path d="M206.31 42.9987L199.799 26.2103L214.193 20.5571L215.135 22.9555L217.534 22.0133L220.361 29.2083L217.962 30.1505L218.905 32.5488L209.309 36.3176L211.194 41.1143L206.31 42.9987ZM208.281 33.9193L215.478 31.0927L212.651 23.8977L205.454 26.7243L208.281 33.9193Z" fill="#646485"></path> <path d="M228.244 34.6045L227.473 32.1205L224.988 32.8914L221.133 20.6428L223.617 19.8719L222.846 17.3879L235.098 13.5334L235.869 16.0174L238.354 15.2465L242.209 27.4952L239.724 28.2661L240.496 30.7501L228.244 34.6045ZM229.957 31.3496L237.326 29.037L233.47 16.7883L226.102 19.101L229.957 31.3496Z" fill="#646485"></path> <path d="M250.348 14.8182L252.833 14.2186L253.433 16.7026L255.917 16.103L256.517 18.587L259.002 17.9874L260.201 22.9554L262.686 22.3558L263.286 24.8398L258.316 26.039L257.717 23.555L255.232 24.1546L254.033 19.1866L249.063 20.3857L250.862 27.8377L245.893 29.0369L241.609 11.649L246.579 10.4498L248.378 17.9018L250.862 17.3022L250.348 14.8182ZM259.087 7.36621L259.687 9.8502L257.203 10.4498L257.802 12.9338L252.833 14.1329L252.233 11.649L254.718 11.0494L254.118 8.56538L259.087 7.36621Z" fill="#646485"></path> </svg> 