<?xml version="1.0" encoding="UTF-8"?> <svg xmlns="http://www.w3.org/2000/svg" width="911" height="911" viewBox="0 0 911 911" fill="none"> <path d="M460.067 24.8813L461.134 0L482.46 0.947859L482.342 4.50233L485.896 4.62081L485.422 15.2842L481.868 15.1657L481.749 18.7202L467.532 18.1278L467.176 25.2367L460.067 24.8813ZM467.65 14.5733L478.313 15.0473L478.787 4.38385L468.124 3.90992L467.65 14.5733Z" fill="#646485"></path> <path d="M492.65 26.5401L493.005 22.9856L489.451 22.6302L491.465 4.97631L495.019 5.33175L495.375 1.77728L513.029 3.79148L512.673 7.34595L516.228 7.7014L514.213 25.3553L510.659 24.9998L510.304 28.5543L492.65 26.5401ZM496.56 23.4596L507.105 24.6444L509.119 6.99051L498.574 5.80568L496.56 23.4596Z" fill="#646485"></path> <path d="M517.886 29.3836L522.27 4.85779L543.242 8.64922L542.649 12.2037L528.668 9.71557L527.365 16.706L541.346 19.1942L540.754 22.7486L544.308 23.341L543.005 30.3315L539.45 29.7391L538.858 33.2936L517.886 29.3836ZM525.588 27.1325L536.133 29.0282L537.436 22.0377L526.891 20.142L525.588 27.1325Z" fill="#646485"></path> <path d="M549.877 35.4262L550.706 31.9902L547.27 31.1608L551.654 13.9808L555.09 14.8102L555.919 11.3742L573.099 15.7581L572.27 19.1941L575.706 20.0234L571.322 37.2034L567.886 36.374L567.057 39.81L549.877 35.4262ZM554.261 32.8195L564.569 35.4262L568.952 18.2462L558.644 15.6396L554.261 32.8195Z" fill="#646485"></path> <path d="M584.711 44.9048L591.346 24.6443L584.592 22.3932L585.658 18.9572L605.919 25.5922L604.853 29.0282L598.099 26.777L591.464 47.0375L584.711 44.9048Z" fill="#646485"></path> <path d="M605.445 51.8953L606.748 48.5778L603.431 47.2745L610.184 30.8054L613.502 32.1087L614.805 28.7912L631.274 35.4262L629.971 38.7438L633.288 40.0471L626.653 56.5161L623.336 55.2128L622.033 58.5303L605.445 51.8953ZM610.066 49.9996L620.018 54.028L626.653 37.5589L616.701 33.5305L610.066 49.9996Z" fill="#646485"></path> <path d="M638.739 66.1132L647.98 46.919L641.582 43.8385L643.122 40.6395L662.317 49.8811L660.776 53.0801L654.378 49.9996L645.137 69.1937L638.739 66.1132Z" fill="#646485"></path> <path d="M655.208 74.0515L667.53 52.3692L689.212 64.6914L687.435 67.7719L672.032 59.0042L668.478 65.1653L680.8 72.1558L679.022 75.2363L666.7 68.2458L663.146 74.4069L678.549 83.1746L676.771 86.2552L655.208 74.0515Z" fill="#646485"></path> <path d="M680.444 88.5063L684.354 82.5822L687.316 84.5964L689.331 81.6344L692.293 83.6485L694.307 80.6865L691.345 78.6723L693.359 75.7102L690.397 73.696L694.307 67.7719L700.231 71.6818L696.321 77.6059L699.283 79.6201L697.269 82.5822L700.231 84.5964L702.245 81.6344L705.207 83.6485L709.117 77.7244L715.041 81.6344L711.131 87.5585L708.169 85.5443L706.155 88.5063L703.193 86.4921L701.179 89.4542L704.141 91.4684L702.127 94.4304L705.089 96.4446L701.179 102.369L695.255 98.4588L699.165 92.5347L696.202 90.5205L698.217 87.5585L695.255 85.5443L693.24 88.5063L690.278 86.4921L686.368 92.4162L680.444 88.5063Z" fill="#646485"></path> <path d="M704.615 104.501L719.662 84.7149L725.349 88.9802L718.833 97.511L727.363 104.028L733.88 95.4968L739.567 99.7621L724.52 119.549L718.833 115.283L725.349 106.753L716.818 100.236L710.302 108.767L704.615 104.501Z" fill="#646485"></path> <path d="M727.6 122.155L744.069 103.435L749.401 108.174L740.041 118.838L742.766 121.207L745.136 118.482L747.861 120.852L750.23 118.127L752.955 120.497L757.695 115.165L763.026 119.904L746.676 138.624L741.344 133.885L748.335 125.828L745.61 123.459L743.24 126.184L740.515 123.814L738.145 126.539L735.42 124.17L733.05 126.895L727.6 122.155Z" fill="#646485"></path> <path d="M769.543 136.255L772.031 138.743L769.543 141.231L772.031 143.719L769.543 146.207L772.031 148.695L767.055 153.672L769.543 156.16L767.055 158.648L762.079 153.672L764.567 151.184L762.079 148.695L767.055 143.719L762.079 138.743L754.496 146.326L749.52 141.35L767.173 123.814L772.15 128.79L764.567 136.373L767.055 138.861L769.543 136.255ZM784.59 141.231L782.102 143.719L779.614 141.231L777.126 143.719L772.15 138.743L774.638 136.255L777.126 138.743L779.614 136.255L784.59 141.231Z" fill="#646485"></path> <path d="M769.898 161.847L783.287 150.117L785.657 152.842L788.382 150.473L790.751 153.198L793.476 150.828L800.467 158.885L797.742 161.255L800.111 163.98L797.386 166.349L799.756 169.074L786.368 180.804L781.747 175.472L787.078 170.852L780.088 162.795L774.756 167.416L769.898 161.847ZM782.695 160.188L789.685 168.245L795.017 163.624L792.647 160.899L795.372 158.529L793.003 155.804L790.277 158.174L787.908 155.449L782.695 160.188Z" fill="#646485"></path> <path d="M822.505 231.041L844.187 218.719L854.732 237.32L851.651 239.097L853.429 242.178L844.187 247.391L842.41 244.311L839.329 246.088L832.339 233.766L826.178 237.32L822.505 231.041ZM835.301 231.989L840.514 241.23L849.756 236.017L844.542 226.775L835.301 231.989Z" fill="#646485"></path> <path d="M838.381 259.476L841.58 257.936L840.04 254.737L856.035 247.036L857.576 250.235L860.775 248.695L868.476 264.69L865.277 266.23L866.817 269.429L850.822 277.13L849.282 273.931L846.083 275.472L838.381 259.476ZM843.121 261.135L847.741 270.732L863.737 263.031L859.116 253.434L843.121 261.135Z" fill="#646485"></path> <path d="M849.4 282.462L872.504 273.22L880.442 293.007L877.125 294.31L871.793 281.159L865.158 283.765L870.49 296.917L867.173 298.22L868.476 301.538L861.841 304.144L860.537 300.827L857.22 302.13L849.4 282.462ZM855.324 287.675L859.234 297.628L865.869 295.021L861.959 285.069L855.324 287.675Z" fill="#646485"></path> <path d="M861.13 312.793L864.566 311.727L863.5 308.291L880.442 302.841L881.509 306.277L884.945 305.211L890.395 322.154L886.959 323.22L888.025 326.656L871.082 332.106L870.016 328.67L866.58 329.736L861.13 312.793ZM865.632 315.045L868.95 325.234L885.893 319.784L882.575 309.594L865.632 315.045Z" fill="#646485"></path> <path d="M871.556 347.272L892.291 342.059L890.514 335.187L893.95 334.357L899.163 355.092L895.727 355.921L893.95 349.049L873.215 354.262L871.556 347.272Z" fill="#646485"></path> <path d="M876.651 368.599L880.206 368.006L879.613 364.452L897.149 361.371L897.741 364.926L901.295 364.333L904.376 381.869L900.821 382.461L901.414 386.016L883.879 389.096L883.286 385.542L879.732 386.134L876.651 368.599ZM880.798 371.561L882.694 382.106L900.229 379.025L898.333 368.48L880.798 371.561Z" fill="#646485"></path> <path d="M882.22 404.262L903.428 401.892L902.599 394.783L906.153 394.428L908.523 415.636L904.968 415.992L904.139 408.883L882.931 411.252L882.22 404.262Z" fill="#646485"></path> <path d="M884.234 422.508L909.115 421.442L910.182 446.323L906.627 446.442L905.916 428.669L898.807 429.025L899.4 443.243L895.845 443.361L895.253 429.143L888.144 429.499L888.855 447.271L885.3 447.389L884.234 422.508Z" fill="#646485"></path> <path d="M885.419 451.536L892.528 451.655L892.409 455.209L895.964 455.328L895.845 458.882L899.4 459.001L899.518 455.446L903.073 455.565L903.191 452.01L910.3 452.129L910.182 459.238L903.073 459.119L902.954 462.674L899.4 462.555L899.281 466.11L902.836 466.228L902.717 469.783L909.826 469.901L909.708 477.01L902.599 476.892L902.717 473.337L899.163 473.219L899.281 469.664L895.727 469.546L895.608 473.1L892.054 472.982L891.935 476.536L884.826 476.418L884.945 469.309L892.054 469.427L892.172 465.873L895.727 465.991L895.845 462.437L892.291 462.318L892.409 458.764L885.3 458.645L885.419 451.536Z" fill="#646485"></path> <path d="M884.708 480.565L909.471 482.816L908.878 489.925L898.215 488.977L897.267 499.64L907.93 500.588L907.338 507.697L882.575 505.446L883.168 498.337L893.831 499.285L894.779 488.621L884.115 487.673L884.708 480.565Z" fill="#646485"></path> <path d="M881.983 509.474L906.509 513.384L905.442 520.375L891.461 518.124L890.869 521.678L894.424 522.27L893.831 525.825L897.386 526.417L896.793 529.972L903.784 531.038L902.717 538.029L878.191 534.119L879.258 527.128L889.803 528.787L890.395 525.232L886.841 524.64L887.433 521.086L883.879 520.493L884.471 516.939L880.916 516.346L881.983 509.474Z" fill="#646485"></path> <path d="M892.409 552.483L891.58 555.919L888.144 555.09L887.315 558.526L883.879 557.697L883.049 561.133L876.177 559.592L875.348 563.028L871.912 562.199L873.452 555.327L876.888 556.156L877.717 552.72L884.589 554.261L886.13 547.389L875.703 545.019L877.244 538.147L901.532 543.716L899.992 550.588L889.566 548.218L888.736 551.654L892.409 552.483ZM896.082 567.886L892.646 567.057L893.476 563.621L890.04 562.791L891.58 555.919L895.016 556.749L894.187 560.185L897.622 561.014L896.082 567.886Z" fill="#646485"></path> <path d="M870.964 566.346L888.025 571.44L886.959 574.876L890.395 575.943L889.329 579.379L892.765 580.445L889.684 590.635L886.248 589.568L885.182 593.004L881.746 591.938L880.679 595.374L863.618 590.279L865.632 583.526L872.386 585.54L875.466 575.35L868.713 573.336L870.964 566.346ZM879.021 576.298L875.94 586.488L882.694 588.502L883.76 585.066L887.196 586.132L888.262 582.696L884.826 581.63L885.893 578.194L879.021 576.298Z" fill="#646485"></path> <path d="M840.04 647.625L861.959 659.473L851.77 678.193L848.689 676.534L847.03 679.615L837.67 674.52L839.329 671.44L836.249 669.781L843.002 657.34L836.722 653.904L840.04 647.625ZM846.083 658.88L840.988 668.241L850.348 673.335L855.443 663.975L846.083 658.88Z" fill="#646485"></path> <path d="M824.282 676.06L827.244 677.956L829.14 674.994L844.187 684.473L842.291 687.435L845.253 689.33L835.775 704.378L832.813 702.482L830.917 705.444L815.87 695.966L817.765 693.003L814.803 691.108L824.282 676.06ZM825.467 681.037L819.78 690.041L834.827 699.52L840.514 690.515L825.467 681.037Z" fill="#646485"></path> <path d="M810.656 697.624L830.68 712.316L818.121 729.496L815.277 727.363L823.69 715.87L818.002 711.724L809.59 723.216L806.747 721.084L804.614 723.927L798.927 719.78L801.059 716.937L798.216 714.804L810.656 697.624ZM809.353 705.444L803.074 714.093L808.761 718.24L815.04 709.591L809.353 705.444Z" fill="#646485"></path> <path d="M791.225 723.69L793.95 725.942L796.202 723.216L809.827 734.709L807.576 737.434L810.301 739.685L798.808 753.311L796.083 751.06L793.832 753.785L780.207 742.292L782.458 739.567L779.733 737.316L791.225 723.69ZM791.699 728.667L784.827 736.842L798.453 748.335L805.325 740.159L791.699 728.667Z" fill="#646485"></path> <path d="M767.41 750.823L782.813 765.633L787.789 760.538L790.396 763.027L775.586 778.429L772.979 775.941L777.955 770.846L762.552 756.036L767.41 750.823Z" fill="#646485"></path> <path d="M752.008 766.463L754.377 769.069L756.984 766.699L768.951 779.851L766.344 782.221L768.714 784.827L755.562 796.794L753.192 794.187L750.586 796.557L738.619 783.405L741.226 781.036L738.856 778.429L752.008 766.463ZM751.771 771.439L743.832 778.666L755.799 791.818L763.737 784.59L751.771 771.439Z" fill="#646485"></path> <path d="M724.875 790.159L738.145 806.865L743.714 802.481L745.965 805.325L729.259 818.595L727.008 815.751L732.576 811.367L719.306 794.661L724.875 790.159Z" fill="#646485"></path> <path d="M710.42 801.533L724.52 822.031L704.022 836.13L702.008 833.168L716.7 823.097L712.671 817.291L700.942 825.348L698.928 822.386L710.657 814.329L706.629 808.524L691.937 818.595L689.923 815.633L710.42 801.533Z" fill="#646485"></path> <path d="M686.605 818.002L690.278 824.163L687.198 825.941L688.975 829.021L685.895 830.798L687.672 833.879L690.752 832.102L692.53 835.182L695.61 833.405L699.283 839.566L693.122 843.239L689.449 837.078L686.368 838.855L684.591 835.775L681.511 837.552L683.288 840.632L680.207 842.41L683.88 848.571L677.719 852.244L674.046 846.083L677.127 844.305L675.35 841.225L678.43 839.448L676.653 836.367L673.572 838.144L671.795 835.064L668.715 836.841L665.042 830.68L671.203 827.007L674.876 833.168L677.956 831.391L679.733 834.471L682.814 832.694L681.037 829.614L684.117 827.836L680.444 821.675L686.605 818.002Z" fill="#646485"></path> <path d="M661.606 832.813L672.861 854.969L666.463 858.168L661.606 848.689L652.127 853.547L656.985 863.026L650.587 866.225L639.331 844.068L645.729 840.869L650.587 850.348L660.065 845.49L655.207 836.012L661.606 832.813Z" fill="#646485"></path> <path d="M635.658 845.846L645.374 868.713L638.857 871.438L633.288 858.286L629.971 859.708L631.393 863.026L628.075 864.448L629.497 867.765L626.179 869.187L628.904 875.703L622.388 878.428L612.672 855.561L619.189 852.836L623.336 862.67L626.653 861.249L625.232 857.931L628.549 856.509L627.127 853.192L630.445 851.77L629.023 848.452L635.658 845.846Z" fill="#646485"></path> <path d="M604.734 877.48L601.417 878.665L600.232 875.348L596.914 876.533L595.729 873.215L592.412 874.4L590.042 867.646L586.725 868.831L585.54 865.514L592.293 863.144L593.478 866.462L596.796 865.277L599.165 872.03L605.919 869.661L602.483 859.59L609.236 857.22L617.412 880.679L610.658 883.049L607.222 872.978L603.905 874.163L604.734 877.48ZM593.597 888.736L592.412 885.419L595.729 884.234L594.545 880.916L601.298 878.547L602.483 881.864L599.165 883.049L600.35 886.367L593.597 888.736Z" fill="#646485"></path> <path d="M581.512 866.58L586.132 883.76L582.696 884.708L583.644 888.144L580.208 889.092L581.156 892.528L570.848 895.371L569.9 891.935L566.464 892.883L565.516 889.447L562.08 890.395L557.46 873.215L564.332 871.319L566.227 878.191L576.535 875.348L574.64 868.476L581.512 866.58ZM577.483 878.784L567.175 881.627L569.071 888.499L572.507 887.551L573.455 890.987L576.891 890.04L575.943 886.604L579.379 885.656L577.483 878.784Z" fill="#646485"></path> <path d="M496.323 883.523L497.863 908.404L476.536 909.708L476.299 906.153L472.745 906.39L472.034 895.727L475.588 895.49L475.351 891.935L489.569 891.106L489.095 883.997L496.323 883.523ZM489.806 894.66L479.143 895.371L479.854 906.035L490.517 905.324L489.806 894.66Z" fill="#646485"></path> <path d="M463.858 885.419V888.973H467.413L467.176 906.746H463.622V910.3L445.849 910.063V906.509H442.295L442.532 888.736H446.086V885.182L463.858 885.419ZM460.186 888.855L449.522 888.736L449.285 906.509L459.949 906.627L460.186 888.855Z" fill="#646485"></path> <path d="M438.266 885.182L436.489 909.945L415.162 908.404L415.399 904.85L429.617 905.916L430.091 898.807L415.873 897.741L416.11 894.186L412.556 893.95L413.03 886.841L416.584 887.078L416.821 883.523L438.266 885.182ZM431.039 888.144L420.375 887.433L419.902 894.542L430.565 895.253L431.039 888.144Z" fill="#646485"></path> <path d="M405.802 882.575L405.328 886.13L408.883 886.604L406.395 904.257L402.84 903.784L402.366 907.338L384.712 904.85L385.186 901.295L381.632 900.821L384.12 883.168L387.674 883.642L388.148 880.087L405.802 882.575ZM401.892 885.656L391.347 884.234L388.859 901.888L399.404 903.31L401.892 885.656Z" fill="#646485"></path> <path d="M370.257 876.888L365.874 897.741L372.864 899.163L372.153 902.599L351.3 898.215L352.011 894.779L359.002 896.201L363.386 875.348L370.257 876.888Z" fill="#646485"></path> <path d="M348.812 872.149L347.864 875.585L351.3 876.533L346.442 893.594L343.006 892.646L342.059 896.082L324.997 891.224L325.945 887.788L322.509 886.841L327.367 869.779L330.803 870.727L331.751 867.291L348.812 872.149ZM344.428 874.637L334.12 871.793L329.263 888.855L339.57 891.698L344.428 874.637Z" fill="#646485"></path> <path d="M314.334 861.722L307.225 881.864L313.978 884.234L312.793 887.551L292.651 880.443L293.836 877.125L300.59 879.495L307.699 859.353L314.334 861.722Z" fill="#646485"></path> <path d="M297.035 855.561L287.083 878.428L264.216 868.476L265.637 865.158L281.988 872.267L284.832 865.751L271.799 860.064L273.22 856.746L286.253 862.433L289.097 855.917L272.746 848.808L274.168 845.49L297.035 855.561Z" fill="#646485"></path> <path d="M270.377 843.95L267.059 850.229L263.86 848.571L262.202 851.77L259.003 850.111L257.344 853.31L260.543 854.969L258.884 858.168L262.083 859.827L258.766 866.106L252.486 862.789L255.804 856.509L252.604 854.85L254.263 851.651L251.064 849.993L249.405 853.191L246.206 851.533L242.889 857.812L236.609 854.495L239.927 848.215L243.126 849.874L244.785 846.675L247.984 848.334L249.642 845.135L246.443 843.476L248.102 840.277L244.903 838.618L248.221 832.339L254.5 835.656L251.183 841.936L254.382 843.594L252.723 846.793L255.922 848.452L257.581 845.253L260.78 846.912L264.097 840.632L270.377 843.95Z" fill="#646485"></path> <path d="M244.666 830.561L231.752 851.888L225.709 848.215L231.278 839.092L222.154 833.524L216.586 842.647L210.543 838.974L223.458 817.647L229.5 821.32L223.932 830.443L233.055 836.012L238.624 826.889L244.666 830.561Z" fill="#646485"></path> <path d="M219.785 815.514L205.448 835.893L199.643 831.865L207.818 820.253L204.856 818.239L202.842 821.201L199.88 819.187L197.866 822.149L194.903 820.135L190.875 825.941L185.069 821.912L199.406 801.533L205.211 805.562L199.05 814.329L202.012 816.344L204.027 813.381L206.989 815.396L209.003 812.434L211.965 814.448L213.979 811.486L219.785 815.514Z" fill="#646485"></path> <path d="M161.136 802.6L163.387 799.874L166.112 802.126L168.363 799.401L173.932 803.903L171.681 806.628L168.956 804.377L166.705 807.102L161.136 802.6ZM176.657 805.917L173.932 803.666L176.183 800.941L173.458 798.69L175.709 795.965L172.984 793.713L177.487 788.145L174.761 785.894L177.013 783.168L182.581 787.671L180.33 790.396L183.055 792.647L178.553 798.216L184.122 802.718L190.875 794.424L196.444 798.927L180.804 818.239L175.235 813.737L181.989 805.443L179.264 803.192L176.657 805.917Z" fill="#646485"></path> <path d="M173.577 780.562L161.491 793.595L158.885 791.225L156.515 793.832L153.909 791.462L151.539 794.069L143.719 786.841L146.089 784.235L143.482 781.865L145.852 779.259L143.245 776.889L155.33 763.856L160.544 768.714L155.686 773.927L163.506 781.154L168.363 775.941L173.577 780.562ZM161.018 783.524L153.198 776.296L148.34 781.51L150.947 783.879L148.577 786.486L151.183 788.856L153.553 786.249L156.16 788.619L161.018 783.524Z" fill="#646485"></path> <path d="M96.9186 693.833L75.8287 706.984L64.5729 688.857L67.5349 686.961L65.6392 683.999L74.6439 678.43L76.5396 681.392L79.5017 679.496L86.966 691.582L93.0086 687.79L96.9186 693.833ZM84.1225 693.359L78.5538 684.354L69.5491 689.923L75.1178 698.928L84.1225 693.359Z" fill="#646485"></path> <path d="M79.9756 665.989L76.895 667.648L78.5538 670.729L62.9141 679.022L61.2554 675.942L58.0563 677.719L49.7626 662.079L52.8431 660.421L51.1844 657.222L66.824 648.928L68.4828 652.008L71.5633 650.35L79.9756 665.989ZM75.2363 664.568L70.26 655.208L54.5019 663.501L59.4781 672.861L75.2363 664.568Z" fill="#646485"></path> <path d="M68.1274 643.478L45.3788 653.667L36.7296 634.236L39.9286 632.814L45.7342 645.847L52.2507 643.004L46.4451 629.971L49.6441 628.549L48.2223 625.35L54.7389 622.506L56.1607 625.705L59.3597 624.284L68.1274 643.478ZM61.9663 638.502L57.5824 628.786L51.0659 631.63L55.4498 641.345L61.9663 638.502Z" fill="#646485"></path> <path d="M54.9759 613.739L51.6583 614.924L52.8432 618.241L36.2556 624.402L35.0708 621.085L31.7533 622.269L25.5922 605.563L28.9097 604.379L27.7249 601.061L44.4309 594.9L45.6157 598.218L48.9333 597.033L54.9759 613.739ZM50.4735 611.606L46.8006 601.653L30.0946 607.815L33.7675 617.767L50.4735 611.606Z" fill="#646485"></path> <path d="M43.2461 579.616L22.7486 585.658L24.7628 592.53L21.3268 593.478L15.4027 572.862L18.8387 571.914L20.8529 578.786L41.3504 572.744L43.2461 579.616Z" fill="#646485"></path> <path d="M37.3219 558.407L33.886 559.118L34.5969 562.554L17.2984 566.346L16.5875 562.91L13.1515 563.621L9.36011 546.322L12.7961 545.611L12.0852 542.175L29.3836 538.384L30.0945 541.82L33.5305 541.109L37.3219 558.407ZM33.1751 555.801L30.9239 545.374L13.6255 549.166L15.8766 559.592L33.1751 555.801Z" fill="#646485"></path> <path d="M30.3315 523.1L9.2416 526.299L10.3079 533.289L6.75347 533.763L3.55444 512.673L7.10891 512.199L8.17526 519.19L29.2651 515.991L30.3315 523.1Z" fill="#646485"></path> <path d="M27.6064 504.972L2.84355 506.986L0.829346 482.223L4.38382 481.986L5.80561 499.759L12.9145 499.166L11.7297 484.948L15.2842 484.711L16.469 498.929L23.578 498.337L22.1562 480.683L25.7106 480.446L27.6064 504.972Z" fill="#646485"></path> <path d="M25.2367 475.944L18.1278 476.062V472.508H14.5733V468.953H11.0188V472.508H7.46438V476.062L0.355434 476.181L0.236952 469.072L7.34589 468.953V465.399H10.9004V461.844H7.34589V458.29L0.236952 458.408L0.118469 451.299L7.22741 451.181V454.735H10.7819V458.29H14.3364V454.735H17.8908V451.181L24.9998 451.062L25.1183 458.171L18.0093 458.29V461.844H14.4548V465.399H18.0093V468.953L25.1183 468.835L25.2367 475.944Z" fill="#646485"></path> <path d="M24.8813 446.916L0 445.612L0.355447 438.503L11.0189 439.096L11.6113 428.432L0.947859 427.84L1.30331 420.731L26.1846 422.034L25.8292 429.143L15.1657 428.551L14.5733 439.214L25.2367 439.807L24.8813 446.916Z" fill="#646485"></path> <path d="M26.3031 418.006L1.54028 415.044L2.36966 407.935L16.4691 409.594L16.943 406.039L13.3885 405.565L13.8624 402.011L10.308 401.537L10.7819 397.982L3.67297 397.153L4.50234 390.044L29.2652 393.006L28.4358 400.115L17.8909 398.812L17.4169 402.366L20.9714 402.84L20.4975 406.395L24.0519 406.868L23.578 410.423L27.1325 410.897L26.3031 418.006Z" fill="#646485"></path> <path d="M14.3364 375.471L15.0473 372.035L18.4833 372.746L19.1942 369.31L22.6301 370.02L23.341 366.584L30.3315 367.888L31.0424 364.452L34.4784 365.163L33.1751 372.153L29.7391 371.442L29.0282 374.878L22.0377 373.575L20.7344 380.565L31.1609 382.58L29.8576 389.57L5.4502 384.949L6.7535 377.959L17.1799 379.973L17.8908 376.537L14.3364 375.471ZM9.95253 360.186L13.3885 360.897L12.6776 364.333L16.1136 365.044L14.8103 372.035L11.3743 371.324L12.0852 367.888L8.64922 367.177L9.95253 360.186Z" fill="#646485"></path> <path d="M35.1893 360.66L18.0094 356.158L18.9572 352.722L15.4027 351.893L16.3506 348.457L12.9146 347.509L15.6397 337.201L19.0757 338.149L20.0236 334.713L23.4595 335.661L24.4074 332.225L41.5873 336.727L39.8101 343.599L32.9381 341.822L30.213 352.13L37.085 353.907L35.1893 360.66ZM26.6586 351.182L29.3837 340.874L22.5117 339.097L21.5638 342.533L18.1278 341.585L17.18 345.021L20.616 345.969L19.6681 349.404L26.6586 351.182Z" fill="#646485"></path> <path d="M75.4733 252.249L53.9095 239.808L64.5729 221.325L67.6534 223.102L69.4307 220.022L78.6723 225.353L76.8951 228.434L79.9756 230.211L72.8667 242.533L79.0277 246.088L75.4733 252.249ZM69.9046 240.756L75.2363 231.515L65.9947 226.183L60.663 235.424L69.9046 240.756Z" fill="#646485"></path> <path d="M92.0608 224.169L89.0988 222.154L87.0846 225.117L72.3927 215.164L74.4069 212.202L71.4449 210.188L81.3974 195.496L84.3595 197.51L86.3737 194.548L101.065 204.501L99.0513 207.463L102.013 209.477L92.0608 224.169ZM91.113 219.311L97.0371 210.425L82.3453 200.472L76.4211 209.358L91.113 219.311Z" fill="#646485"></path> <path d="M106.279 203.079L86.6106 187.795L99.6437 170.97L102.487 173.103L93.7195 184.359L99.2882 188.742L108.056 177.487L110.899 179.619L113.032 176.776L118.601 181.16L116.468 184.003L119.312 186.136L106.279 203.079ZM107.819 195.259L114.335 186.847L108.767 182.463L102.25 190.875L107.819 195.259Z" fill="#646485"></path> <path d="M126.421 177.487L123.814 175.117L121.444 177.724L108.174 165.875L110.544 163.269L107.937 160.899L119.786 147.629L122.392 149.999L124.762 147.392L138.032 159.24L135.662 161.847L138.269 164.217L126.421 177.487ZM126.184 172.51L133.293 164.572L120.023 152.724L112.914 160.662L126.184 172.51Z" fill="#646485"></path> <path d="M150.947 151.065L136.018 135.899L130.923 140.876L128.435 138.387L143.601 123.459L146.089 125.947L140.994 130.923L155.923 146.089L150.947 151.065Z" fill="#646485"></path> <path d="M166.823 135.781L164.454 133.056L161.728 135.425L150.117 121.918L152.842 119.549L150.473 116.824L163.98 105.212L166.349 107.937L169.074 105.568L180.686 119.075L177.961 121.444L180.33 124.17L166.823 135.781ZM167.179 130.805L175.235 123.814L163.624 110.307L155.567 117.298L167.179 130.805Z" fill="#646485"></path> <path d="M194.666 112.914L181.87 95.8522L176.183 100.118L174.051 97.274L191.112 84.4779L193.245 87.3215L187.558 91.5868L200.354 108.648L194.666 112.914Z" fill="#646485"></path> <path d="M209.358 101.895L195.851 81.042L216.704 67.535L218.6 70.497L203.671 80.2126L207.581 86.1367L219.548 78.4353L221.444 81.3974L209.477 89.0988L213.387 95.0229L228.315 85.3073L230.211 88.2694L209.358 101.895Z" fill="#646485"></path> <path d="M233.647 86.1367L230.211 79.9756L233.292 78.1984L231.515 75.1178L234.595 73.3406L232.818 70.26L229.737 72.0373L227.96 68.9567L224.88 70.734L221.444 64.5729L227.605 61.1369L231.041 67.298L234.121 65.5207L235.898 68.6013L238.979 66.8241L237.202 63.7435L240.282 61.9663L236.846 55.8052L243.007 52.3692L246.443 58.5303L243.363 60.3075L245.14 63.3881L242.06 65.1653L243.837 68.2458L246.917 66.4686L248.695 69.5491L251.775 67.7719L255.211 73.933L249.05 77.369L245.614 71.2079L242.533 72.9851L240.756 69.9046L237.676 71.6818L239.453 74.7624L236.372 76.5396L239.808 82.7007L233.647 86.1367Z" fill="#646485"></path> <path d="M259.003 72.0372L248.339 49.5256L254.737 46.4451L259.239 56.0421L268.837 51.5398L264.334 41.9427L270.732 38.8622L281.396 61.3738L274.998 64.4544L270.495 54.8573L260.898 59.3596L265.401 68.9567L259.003 72.0372Z" fill="#646485"></path> <path d="M285.306 59.5966L276.301 36.3741L282.936 33.7674L288.149 47.0375L291.467 45.7342L290.163 42.4167L293.481 41.1134L292.178 37.7958L295.495 36.4925L292.888 29.8575L299.523 27.2509L308.528 50.4735L301.893 53.0801L297.983 43.1276L294.666 44.4309L295.969 47.7484L292.651 49.0517L293.955 52.3692L290.637 53.6725L291.941 56.99L285.306 59.5966Z" fill="#646485"></path> <path d="M317.177 28.9097L320.613 27.8433L321.68 31.2793L325.116 30.213L326.182 33.649L329.618 32.5826L331.751 39.3361L335.187 38.2698L336.253 41.7058L329.5 43.8385L328.433 40.4025L324.997 41.4688L322.865 34.7153L316.111 36.848L319.31 47.0375L312.557 49.1702L305.092 25.4737L311.846 23.341L315.045 33.5305L318.481 32.4641L317.177 28.9097ZM328.552 17.8908L329.618 21.3268L326.182 22.3931L327.248 25.8291L320.495 27.9618L319.429 24.5258L322.865 23.4595L321.798 20.0235L328.552 17.8908Z" fill="#646485"></path> <path d="M339.926 40.4025L335.779 23.1041L339.215 22.2747L338.386 18.8387L341.822 18.0093L340.992 14.5733L351.3 12.0852L352.13 15.5212L355.566 14.6918L356.395 18.1278L359.831 17.2984L363.978 34.5969L357.106 36.2556L355.447 29.3836L345.139 31.8718L346.798 38.7437L339.926 40.4025ZM344.428 28.3173L354.736 25.8292L353.077 18.9572L349.642 19.7866L348.812 16.3506L345.376 17.1799L346.206 20.6159L342.77 21.4453L344.428 28.3173Z" fill="#646485"></path> </svg> 